<?xml version="1.0" encoding="utf-8"?>
<!-- Generator: Adobe Illustrator 24.3.0, SVG Export Plug-In . SVG Version: 6.00 Build 0)  -->
<svg version="1.0" id="Layer_1" xmlns="http://www.w3.org/2000/svg" xmlns:xlink="http://www.w3.org/1999/xlink" x="0px" y="0px"
	 viewBox="0 0 138.61 138.61" style="enable-background:new 0 0 138.61 138.61;" xml:space="preserve">
<style type="text/css">
	.st0{fill-rule:evenodd;clip-rule:evenodd;fill:#ABF1FF;}
	.st1{fill-rule:evenodd;clip-rule:evenodd;fill:#FEDB00;}
	.st2{fill-rule:evenodd;clip-rule:evenodd;fill:#FEE450;}
	.st3{fill-rule:evenodd;clip-rule:evenodd;fill:#FEF286;}
	.st4{fill-rule:evenodd;clip-rule:evenodd;fill:#0D6AF0;}
	.st5{fill-rule:evenodd;clip-rule:evenodd;fill:#1886F5;}
	.st6{fill-rule:evenodd;clip-rule:evenodd;fill:#41B4FA;}
	.st7{fill-rule:evenodd;clip-rule:evenodd;fill:#4CD7FF;}
	.st8{fill-rule:evenodd;clip-rule:evenodd;fill:#72E4FF;}
	.st9{fill-rule:evenodd;clip-rule:evenodd;fill:#2BAAFA;}
</style>
<g>
	<path class="st0" d="M69.31,2.59c36.85,0,66.72,29.87,66.72,66.72c0,36.85-29.87,66.72-66.72,66.72
		c-36.85,0-66.72-29.87-66.72-66.72C2.59,32.46,32.46,2.59,69.31,2.59L69.31,2.59z"/>
	<path class="st1" d="M86.21,19.91c13.76,0,24.92,11.16,24.92,24.92c0,1.34-0.11,2.66-0.31,3.95c-13.84,2.51-29.94,7.15-45.55,9.56
		c-2.51-3.89-3.98-8.53-3.98-13.51C61.28,31.07,72.44,19.91,86.21,19.91L86.21,19.91z"/>
	<path class="st2" d="M86.21,27.7c9.46,0,17.14,7.67,17.14,17.13c0,1.98-0.34,3.88-0.95,5.65c-9.04,1.97-18.73,4.41-28.44,6.32
		c-3.02-3.09-4.88-7.31-4.88-11.97C69.07,35.37,76.74,27.7,86.21,27.7L86.21,27.7z"/>
	<path class="st3" d="M86.21,35.45c5.18,0,9.38,4.2,9.38,9.38c0,3.64-2.08,6.8-5.11,8.36c-1.48,0.34-2.96,0.68-4.46,1.02
		c-5.1-0.1-9.2-4.26-9.2-9.38C76.82,39.65,81.02,35.45,86.21,35.45L86.21,35.45z"/>
	<path class="st4" d="M97.52,107.84c-8.39,6.48-17.49,10.91-27.04,10.91c-28.11,0-53.29-38.43-67.72-54.36
		c-0.12,1.62-0.18,3.26-0.18,4.91c0,36.85,29.87,66.72,66.72,66.72c24.42,0,45.77-13.12,57.39-32.69
		c-4.89,3.67-10.86,6.01-18.15,6.01C105.05,109.34,101.36,108.8,97.52,107.84L97.52,107.84z"/>
	<path class="st5" d="M97.52,107.84C65.96,99.93,24.69,63.15,3.65,57.41c-0.41,2.29-0.71,4.62-0.88,6.99
		c14.43,15.92,39.6,54.36,67.72,54.36C80.03,118.75,89.13,114.32,97.52,107.84L97.52,107.84z"/>
	<path class="st6" d="M102.39,50.49c-3.87,0.84-7.85,1.77-11.91,2.71c-1.48,0.34-2.96,0.68-4.46,1.02
		c-3.99,0.91-8.03,1.8-12.07,2.59c-2.9,0.57-5.8,1.09-8.69,1.54c-4.73,0.73-9.42,1.26-13.99,1.46
		c10.81,10.6,22.08,18.93,32.95,18.93c23.25,0,39.96-15,50.52-22.52c-0.6-3-1.39-5.92-2.38-8.75c-6.02-0.89-13.39-0.15-21.54,1.33
		C108.08,49.28,105.27,49.86,102.39,50.49L102.39,50.49z"/>
	<path class="st7" d="M51.27,59.8c-11.6-11.37-22.66-25.36-32.12-34.49C13.07,32.24,8.39,40.45,5.59,49.47
		c8.97,3.71,22.4,10.42,41.74,10.42C48.63,59.89,49.95,59.86,51.27,59.8L51.27,59.8z"/>
	<path class="st8" d="M62.55,36.98c-12.8-1.27-24.5-10.9-34.58-20.04c-3.19,2.52-6.14,5.32-8.81,8.37
		c9.45,9.12,20.52,23.11,32.12,34.48c4.57-0.2,9.26-0.72,13.99-1.46c-2.51-3.89-3.98-8.53-3.98-13.51
		C61.28,42.09,61.73,39.45,62.55,36.98L62.55,36.98z"/>
	<path class="st8" d="M104.13,12.39c-2.97,3.09-6.03,6.19-9.17,9.1c9.44,3.55,16.16,12.66,16.16,23.34c0,1.34-0.11,2.66-0.31,3.95
		c8.16-1.48,15.52-2.22,21.55-1.34C127.27,32.76,117.18,20.39,104.13,12.39L104.13,12.39z"/>
	<path class="st5" d="M135.59,65.5c-9.05,10.78-22.31,30.17-38.07,42.34c3.84,0.96,7.53,1.5,11.03,1.5c7.29,0,13.26-2.33,18.15-6
		c5.92-9.96,9.32-21.6,9.32-34.03c0-1.38-0.04-2.76-0.13-4.12C135.73,65.36,135.62,65.47,135.59,65.5L135.59,65.5z"/>
	<path class="st9" d="M134.73,56.21c-10.56,7.51-27.26,22.52-50.51,22.52c-10.87,0-22.14-8.33-32.95-18.93
		c-1.33,0.06-2.64,0.09-3.94,0.09c-19.34,0-32.77-6.7-41.74-10.42c-0.8,2.58-1.45,5.23-1.94,7.93
		c21.04,5.75,62.31,42.53,93.87,50.43c15.76-12.17,29.02-31.56,38.07-42.34c0.02-0.03,0.14-0.14,0.3-0.32
		C135.71,62.13,135.32,59.13,134.73,56.21L134.73,56.21z"/>
</g>
</svg>
